<svg width="129" height="129" viewBox="0 0 129 129" fill="none" xmlns="http://www.w3.org/2000/svg">
<path d="M58.1414 82.8112L30.102 82.8112" stroke="#0C2461" stroke-width="2"/>
<path d="M68.3633 72.8369L40.4463 72.8369" stroke="#0C2461" stroke-width="2"/>
<path d="M56.9387 61.0052L24.8602 61.0052L13.9073 70.6852" stroke="#0C2461" stroke-width="2"/>
<path d="M68.0552 48.2024L35.9767 48.2024L25.0995 38.4653" stroke="#0C2461" stroke-width="2"/>
<path d="M58.1414 54.7195L28.979 54.7195L16.7901 50.7598" stroke="#0C2461" stroke-width="2"/>
<circle cx="5.74216" cy="5.74216" r="4.74216" transform="matrix(1 -8.74228e-08 -8.74228e-08 -1 20.1189 88.2324)" stroke="#0C2461" stroke-width="2"/>
<circle cx="5.74216" cy="5.74216" r="4.74216" transform="matrix(1 -8.74228e-08 -8.74228e-08 -1 30.3413 78.2582)" stroke="#0C2461" stroke-width="2"/>
<circle cx="5.74216" cy="5.74216" r="4.74216" transform="matrix(1 -8.74228e-08 -8.74228e-08 -1 7.19751 54.7195)" stroke="#0C2461" stroke-width="2"/>
<circle cx="5.74216" cy="5.74216" r="4.74216" transform="matrix(1 -8.74228e-08 -8.74228e-08 -1 6.26782 80.303)" stroke="#0C2461" stroke-width="2"/>
<circle cx="23.1262" cy="34.6467" r="4.74216" stroke="#0C2461" stroke-width="2"/>
<circle cx="87.0364" cy="64.1474" r="34.2429" transform="rotate(-180 87.0364 64.1474)" fill="#0C2461" stroke="#0C2461" stroke-width="2"/>
<path d="M81.157 61.8294L81.157 44.3003M81.157 61.8294L96.525 52.3867L102.692 61.3476M81.157 61.8294L66.077 69.2487M81.157 61.8294L94.1161 71.4648L88.8166 81.1966" stroke="white" stroke-width="2"/>
<circle cx="81.1576" cy="46.4514" r="3.64072" transform="rotate(-180 81.1576 46.4514)" fill="#0C2461" stroke="white" stroke-width="2"/>
<circle cx="95.7779" cy="52.1936" r="3.143" transform="rotate(-180 95.7779 52.1936)" fill="#0C2461" stroke="white" stroke-width="2"/>
<circle cx="103.732" cy="63.6986" r="4.74216" transform="rotate(-180 103.732 63.6986)" fill="#0C2461" stroke="white" stroke-width="2"/>
<circle cx="103.732" cy="63.6986" r="4.74216" transform="rotate(-180 103.732 63.6986)" fill="#0C2461" stroke="white" stroke-width="2"/>
<circle cx="92.835" cy="70.242" r="4.74216" transform="rotate(-180 92.835 70.242)" fill="#0C2461" stroke="white" stroke-width="2"/>
<circle cx="81.3506" cy="62.0788" r="4.74216" transform="rotate(-180 81.3506 62.0788)" fill="#0C2461" stroke="white" stroke-width="2"/>
<circle cx="88.0639" cy="82.8045" r="2.67954" transform="rotate(-180 88.0639 82.8045)" fill="#0C2461" stroke="white" stroke-width="2"/>
<circle cx="68.657" cy="68.391" r="3.05832" transform="rotate(-180 68.657 68.391)" fill="#0C2461" stroke="white" stroke-width="2"/>
</svg>
