<svg width="703" height="700" viewBox="0 0 703 700" fill="none" xmlns="http://www.w3.org/2000/svg">
<path d="M259.647 313.913L259.647 39.4969M259.647 313.913L500.232 166.088L596.771 306.371M259.647 313.913L23.5702 430.062M259.647 313.913L462.52 464.755L379.557 617.106" stroke="white" stroke-width="2"/>
<circle cx="259.656" cy="73.1725" r="71.6502" transform="rotate(-180 259.656 73.1725)" fill="#0C2461" stroke="white" stroke-width="2"/>
<circle cx="488.543" cy="163.066" r="63.8585" transform="rotate(-180 488.543 163.066)" fill="#0C2461" stroke="white" stroke-width="2"/>
<circle cx="613.064" cy="343.176" r="88.8932" transform="rotate(-180 613.064 343.176)" fill="#0C2461" stroke="white" stroke-width="2"/>
<circle cx="613.064" cy="343.176" r="88.8932" transform="rotate(-180 613.064 343.176)" fill="#0C2461" stroke="white" stroke-width="2"/>
<circle cx="442.472" cy="445.612" r="88.8932" transform="rotate(-180 442.472 445.612)" fill="#0C2461" stroke="white" stroke-width="2"/>
<circle cx="262.685" cy="317.817" r="88.8932" transform="rotate(-180 262.685 317.817)" fill="#0C2461" stroke="white" stroke-width="2"/>
<circle cx="367.773" cy="642.277" r="56.603" transform="rotate(-180 367.773 642.277)" fill="#0C2461" stroke="white" stroke-width="2"/>
<circle cx="63.9667" cy="416.634" r="62.5328" transform="rotate(-180 63.9667 416.634)" fill="#0C2461" stroke="white" stroke-width="2"/>
</svg>
