<svg width="117" height="71" viewBox="0 0 117 71" fill="none" xmlns="http://www.w3.org/2000/svg">
<path d="M52.1472 54.0541L24.1079 54.0541" stroke="#0C2461" stroke-width="2"/>
<path d="M62.3691 44.0798L34.4522 44.0798" stroke="#0C2461" stroke-width="2"/>
<path d="M50.9446 32.2481L18.8661 32.2481L7.91314 41.9282" stroke="#0C2461" stroke-width="2"/>
<path d="M62.061 19.4453L29.9825 19.4453L19.1053 9.70826" stroke="#0C2461" stroke-width="2"/>
<path d="M52.1472 25.9624L22.9849 25.9624L10.796 22.0027" stroke="#0C2461" stroke-width="2"/>
<circle cx="5.74216" cy="5.74216" r="4.74216" transform="matrix(1 -8.74228e-08 -8.74228e-08 -1 14.1248 59.4753)" stroke="#0C2461" stroke-width="2"/>
<circle cx="5.74216" cy="5.74216" r="4.74216" transform="matrix(1 -8.74228e-08 -8.74228e-08 -1 24.3472 49.5011)" stroke="#0C2461" stroke-width="2"/>
<circle cx="5.74216" cy="5.74216" r="4.74216" transform="matrix(1 -8.74228e-08 -8.74228e-08 -1 1.20337 25.9624)" stroke="#0C2461" stroke-width="2"/>
<circle cx="5.74216" cy="5.74216" r="4.74216" transform="matrix(1 -8.74228e-08 -8.74228e-08 -1 0.273682 51.546)" stroke="#0C2461" stroke-width="2"/>
<circle cx="17.1321" cy="5.88962" r="4.74216" stroke="#0C2461" stroke-width="2"/>
<circle cx="81.0422" cy="35.3903" r="34.2429" transform="rotate(-180 81.0422 35.3903)" fill="#0C2461" stroke="#0C2461" stroke-width="2"/>
<path d="M75.1629 33.0723L75.1629 15.5432M75.1629 33.0723L90.5308 23.6296L96.6975 32.5905M75.1629 33.0723L60.0828 40.4916M75.1629 33.0723L88.1219 42.7077L82.8224 52.4395" stroke="white" stroke-width="2"/>
<circle cx="75.1635" cy="17.6944" r="3.64072" transform="rotate(-180 75.1635 17.6944)" fill="#0C2461" stroke="white" stroke-width="2"/>
<circle cx="89.7838" cy="23.4365" r="3.143" transform="rotate(-180 89.7838 23.4365)" fill="#0C2461" stroke="white" stroke-width="2"/>
<circle cx="97.7383" cy="34.9416" r="4.74216" transform="rotate(-180 97.7383 34.9416)" fill="#0C2461" stroke="white" stroke-width="2"/>
<circle cx="97.7383" cy="34.9416" r="4.74216" transform="rotate(-180 97.7383 34.9416)" fill="#0C2461" stroke="white" stroke-width="2"/>
<circle cx="86.8409" cy="41.4849" r="4.74216" transform="rotate(-180 86.8409 41.4849)" fill="#0C2461" stroke="white" stroke-width="2"/>
<circle cx="75.3565" cy="33.3217" r="4.74216" transform="rotate(-180 75.3565 33.3217)" fill="#0C2461" stroke="white" stroke-width="2"/>
<circle cx="82.0697" cy="54.0474" r="2.67954" transform="rotate(-180 82.0697 54.0474)" fill="#0C2461" stroke="white" stroke-width="2"/>
<circle cx="62.6629" cy="39.6339" r="3.05832" transform="rotate(-180 62.6629 39.6339)" fill="#0C2461" stroke="white" stroke-width="2"/>
</svg>
